<svg version="1.1" id="Layer_1" xmlns="http://www.w3.org/2000/svg" xmlns:xlink="http://www.w3.org/1999/xlink" x="0px" y="0px"
	 width="100%" viewBox="0 0 879 1557" enable-background="new 0 0 879 1557" xml:space="preserve">
<path fill="#000000" opacity="1.000000" stroke="none" 
	d="
M0.999998,442.000000 
	C1.000000,440.285645 1.000000,438.571289 1.384756,436.294495 
	C2.179656,434.183197 2.879368,432.648376 2.955056,431.083344 
	C3.696148,415.759308 4.450200,400.434204 4.966093,385.101501 
	C5.456342,370.530975 5.611865,355.949463 6.029762,341.376068 
	C6.175604,336.290100 6.560512,331.204529 7.017440,326.135132 
	C8.293881,311.973602 9.791448,297.830994 10.963196,283.661224 
	C12.126373,269.595093 12.967357,255.502563 14.008840,241.425980 
	C14.964474,228.509781 16.033587,215.602005 16.989506,202.685822 
	C18.031197,188.610718 18.993942,174.529800 20.004477,160.452362 
	C20.321531,156.035568 20.606052,151.614471 21.036560,147.208145 
	C22.322866,134.042587 23.713680,120.887192 24.985081,107.720230 
	C25.740387,99.898109 26.197958,92.045288 27.054073,84.235283 
	C28.597969,70.150894 30.291462,56.082256 32.017162,42.018661 
	C33.184204,32.507874 37.024178,23.524860 46.109535,20.357359 
	C58.620087,15.995708 71.889771,13.655757 84.964828,11.124144 
	C93.576080,9.456817 102.412582,8.934449 111.156517,7.974895 
	C126.545341,6.286136 141.914841,4.331542 157.341599,3.108196 
	C168.542404,2.219972 179.823013,2.347108 191.065796,1.956996 
	C191.720810,1.934267 192.355728,1.332370 193.000000,1.000001 
	C217.020889,1.000000 241.041794,1.000000 265.698547,1.408782 
	C281.663727,2.545042 296.998352,3.177998 312.320221,4.038205 
	C320.495148,4.497165 328.675507,5.116194 336.804413,6.077322 
	C349.072510,7.527840 361.356384,8.999681 373.525299,11.091950 
	C386.692719,13.355887 399.856201,15.869389 412.795990,19.160397 
	C423.577026,21.902380 433.071838,35.654312 432.233246,46.094391 
	C431.678986,52.994179 433.238556,60.086777 434.059753,67.068588 
	C435.276367,77.412399 436.912354,87.711632 437.921570,98.073502 
	C438.656433,105.618118 438.614075,113.236130 439.023560,120.815720 
	C439.235565,124.739731 439.610748,128.658386 440.026611,132.567291 
	C441.321686,144.739655 442.847839,156.890289 443.945770,169.079865 
	C444.874573,179.391418 445.261200,189.750610 446.014191,200.079498 
	C447.290131,217.582092 448.594666,235.083252 450.026245,252.573639 
	C450.879608,262.999756 452.182129,273.390533 452.954559,283.821503 
	C454.120239,299.562225 455.140259,315.316895 455.952301,331.079559 
	C456.531189,342.316772 456.625061,353.578247 457.009308,364.826385 
	C457.641357,383.328278 458.541199,401.823547 458.948730,420.329956 
	C459.489929,444.905426 459.715698,469.488403 459.978577,494.069214 
	C460.103302,505.731781 459.942566,517.397278 460.044739,529.060303 
	C460.067291,531.637390 461.672333,534.636963 460.802429,536.708679 
	C457.397247,544.818237 463.386200,549.071045 467.492889,553.749146 
	C471.006897,557.752197 475.723572,560.675598 479.733643,564.271362 
	C493.604370,576.708984 507.492371,589.130127 521.192444,601.754333 
	C531.977234,611.692261 542.608765,621.803284 553.102661,632.048218 
	C567.546753,646.149536 582.218201,660.054199 596.022888,674.765137 
	C613.050903,692.911072 629.448975,711.658875 645.799622,730.425110 
	C653.911438,739.735291 661.798340,749.322449 668.912231,759.401611 
	C679.218018,774.003174 689.302551,788.825317 698.412781,804.187134 
	C706.656128,818.087280 714.827209,832.247437 719.273315,847.957092 
	C720.676147,852.913940 725.011841,857.904114 722.025818,861.984741 
	C728.504333,882.093628 730.124207,901.864319 734.769409,921.189087 
	C731.507751,922.187378 728.585327,922.786133 730.790405,927.465759 
	C741.185425,949.526001 751.375671,971.685547 761.380737,993.925720 
	C767.350830,1007.196472 773.287537,1020.512817 778.460754,1034.104980 
	C789.566284,1063.283447 801.148804,1092.337891 810.708130,1122.031616 
	C820.923035,1153.761475 829.329712,1186.089478 837.945190,1218.311646 
	C842.598816,1235.716553 846.155334,1253.420532 849.989563,1271.036865 
	C852.837097,1284.119507 855.467529,1297.253418 857.945374,1310.411377 
	C859.833008,1320.434937 861.501465,1330.507324 862.953064,1340.603271 
	C864.505127,1351.397217 865.665649,1362.247070 867.039734,1373.067139 
	C868.330811,1383.234375 869.851135,1393.376099 870.946960,1403.563843 
	C871.876099,1412.202148 872.297424,1420.894043 873.024170,1429.555420 
	C874.317261,1444.967773 875.951477,1460.357300 876.911499,1475.789551 
	C877.682190,1488.178589 877.608826,1500.618774 878.082947,1513.029663 
	C878.134338,1514.375610 879.333374,1515.677612 880.000000,1517.000000 
	C880.000000,1517.750000 880.000000,1518.500000 879.591187,1519.792236 
	C879.121643,1532.889648 879.060852,1545.444824 879.000000,1558.000000 
	C861.979126,1558.000000 844.958191,1558.000000 827.468628,1557.544800 
	C824.686218,1341.365845 776.323425,1136.767090 678.892151,944.022583 
	C670.969421,946.425354 670.157959,946.153076 666.160950,939.516602 
	C663.260437,934.700623 660.295227,929.918701 657.556763,925.011169 
	C652.131958,915.289429 643.489136,907.411194 640.936707,896.023499 
	C640.794922,895.391052 639.759521,894.924133 639.088623,894.453552 
	C638.151611,893.796326 636.845276,893.425476 636.255554,892.554077 
	C633.284241,888.163696 630.458557,883.672913 627.651062,879.174072 
	C624.919434,874.796875 622.414124,870.272522 619.557129,865.980835 
	C613.788757,857.315857 608.103394,848.571106 601.799011,840.305237 
	C600.251038,838.275574 599.507385,836.100525 598.215271,834.181885 
	C596.604431,831.789978 593.033386,830.526123 591.912476,828.049377 
	C590.750977,825.482849 589.267456,823.816284 587.120483,822.390808 
	C587.120483,822.390808 580.757202,813.961609 580.757202,813.961609 
	C579.175537,811.944824 577.456726,810.018677 576.048035,807.887573 
	C574.396118,805.388550 573.308655,802.474731 571.452026,800.161743 
	C567.820984,795.638184 563.827271,791.405518 559.980469,787.055298 
	C558.367798,785.231506 556.854126,783.303223 555.102722,781.623291 
	C552.961426,779.569336 550.349304,777.960571 548.415344,775.745117 
	C543.879883,770.549622 540.051453,764.646423 535.025696,760.019348 
	C533.307129,758.437073 532.641968,755.843079 531.068481,755.246094 
	C526.950317,753.683777 526.079651,749.389648 523.005005,747.078064 
	C520.963501,745.543274 519.196777,743.648682 517.234375,742.001648 
	C514.885010,740.029785 512.211304,738.385010 510.115784,736.182129 
	C505.635681,731.472656 501.642456,726.290466 497.056854,721.693909 
	C493.585175,718.213989 489.401459,715.455994 485.737976,712.151306 
	C483.829987,710.430115 481.156189,708.328003 480.431793,706.758911 
	C478.818665,703.264893 475.193726,702.815247 473.344391,700.055176 
	C471.561890,697.394775 469.061493,695.215332 466.876434,692.824646 
	C466.800598,692.966858 466.724762,693.109009 466.648895,693.251221 
	C462.983673,690.103699 459.318420,686.956177 455.669159,683.822327 
	C454.076599,701.746887 452.711304,719.073120 450.937958,736.357422 
	C449.828247,747.173340 451.507660,757.801636 448.657501,768.998596 
	C444.712311,784.497498 445.334167,801.158875 443.999390,817.322388 
	C443.904358,818.473389 443.825195,819.626526 443.696594,820.773926 
	C443.313934,824.187988 442.608521,827.598450 442.593445,831.012817 
	C442.575714,835.025940 444.799469,839.264893 440.312836,842.514038 
	C439.388977,843.182983 439.217407,845.135620 439.034637,846.540222 
	C438.277740,852.356140 437.930023,858.237976 436.920807,864.006104 
	C434.082458,880.228149 430.951385,896.398743 428.024994,912.605774 
	C427.189423,917.233337 426.758820,921.933105 425.968475,926.570068 
	C423.735840,939.669128 419.420593,952.449524 419.988403,965.975769 
	C420.008820,966.461121 420.068115,967.160645 419.792206,967.410889 
	C413.310303,973.292358 416.260345,982.241211 412.647186,989.224121 
	C409.978821,994.381287 410.420502,1001.035156 404.687347,1004.818115 
	C402.070679,1006.544678 400.201263,1009.717346 397.429230,1010.830444 
	C391.390564,1013.255127 384.842102,1014.013000 379.115845,1017.803467 
	C375.880096,1019.945312 371.280334,1020.052002 367.276245,1020.996094 
	C365.441254,1021.428772 363.572388,1021.784485 361.698578,1021.968018 
	C359.596771,1022.173828 357.362396,1021.752869 355.381744,1022.306213 
	C352.017365,1023.246033 348.883087,1025.041260 345.504333,1025.886353 
	C343.245422,1026.451416 340.730743,1025.993896 337.053711,1025.993896 
	C339.113678,1026.829712 339.927246,1027.159790 341.415314,1027.763550 
	C335.246490,1028.573730 329.779785,1029.085205 324.401642,1030.077148 
	C321.289276,1030.651123 318.367401,1032.189697 315.276917,1032.963013 
	C305.614990,1035.380981 295.942810,1037.774048 286.216553,1039.912842 
	C280.380371,1041.196289 274.469788,1042.398560 268.530914,1042.888062 
	C262.195068,1043.410522 261.041046,1044.216553 260.995636,1050.812134 
	C260.670471,1098.055786 260.369843,1145.299683 259.987579,1192.542969 
	C259.718536,1225.789795 259.156311,1259.035034 259.042145,1292.282104 
	C258.877350,1340.272583 258.918701,1388.264160 259.045929,1436.254761 
	C259.088135,1452.171753 259.612701,1468.088623 260.012360,1484.003174 
	C260.631836,1508.669922 261.333313,1533.334473 262.000000,1558.000000 
	C242.979111,1558.000000 223.958206,1558.000000 204.468658,1557.537109 
	C203.666779,1552.490723 203.220520,1547.912231 203.020630,1543.322998 
	C202.302124,1526.826538 201.522659,1510.330811 201.039581,1493.826782 
	C200.530045,1476.419434 200.006775,1459.002075 200.060806,1441.590820 
	C200.227509,1387.858521 200.628342,1334.126953 201.013199,1280.395630 
	C201.277527,1243.490234 201.729004,1206.586182 201.975433,1169.680786 
	C202.112274,1149.189575 202.129944,1128.695801 201.962585,1108.205200 
	C201.802673,1088.625488 201.217102,1069.048950 201.088165,1049.469360 
	C201.058838,1045.016479 198.884003,1043.573120 195.120453,1042.988037 
	C186.652695,1041.671631 178.087814,1040.751221 169.758087,1038.824097 
	C153.482712,1035.058716 137.268417,1030.978760 121.163925,1026.539062 
	C103.395454,1021.640564 85.743797,1016.306519 68.108047,1010.942627 
	C56.470848,1007.403137 49.533867,999.273682 47.030430,987.484802 
	C44.217999,974.240906 41.608166,960.953003 39.014511,947.663879 
	C36.602825,935.306946 34.297333,922.928955 32.003654,910.549438 
	C30.294916,901.326904 28.724125,892.078857 27.004107,882.858521 
	C26.127302,878.158386 24.118132,873.462280 24.276911,868.820923 
	C24.574673,860.117004 23.499434,851.677124 22.021063,843.183533 
	C20.521744,834.569580 19.358883,825.897644 17.978033,817.262329 
	C17.639256,815.143799 16.805481,813.090881 16.598064,810.968750 
	C16.379997,808.737732 16.925167,806.422791 16.637363,804.209473 
	C15.820525,797.927734 14.559064,791.700439 13.854836,785.408875 
	C13.484888,782.103638 14.266652,778.671875 13.918808,775.361328 
	C12.761378,764.345520 11.151510,753.376465 10.047826,742.356079 
	C8.839783,730.293701 7.892972,718.201965 7.029422,706.108948 
	C5.917161,690.533020 4.861029,674.950256 4.047359,659.356628 
	C3.469795,648.287781 3.424732,637.191833 2.918152,626.118225 
	C2.823716,624.053894 1.666662,622.038147 1.000004,620.000000 
	C1.000000,618.285645 1.000000,616.571289 1.408784,614.261230 
	C1.878379,607.233032 2.025218,600.799438 1.951307,594.368408 
	C1.926872,592.242249 1.333330,590.122620 0.999998,588.000000 
	C1.000000,552.979126 1.000000,517.958191 1.408797,482.301422 
	C1.877371,469.083344 1.951871,456.501160 1.954122,443.918976 
	C1.954236,443.279388 1.332304,442.639648 0.999998,442.000000 
z"/>
</svg>